G04 #@! TF.GenerationSoftware,KiCad,Pcbnew,5.0.0-rc3-6a2723a~65~ubuntu16.04.1*
G04 #@! TF.CreationDate,2019-04-26T01:55:19+06:00*
G04 #@! TF.ProjectId,ICE40ADP,49434534304144502E6B696361645F70,rev?*
G04 #@! TF.SameCoordinates,Original*
G04 #@! TF.FileFunction,Soldermask,Bot*
G04 #@! TF.FilePolarity,Negative*
%FSLAX46Y46*%
G04 Gerber Fmt 4.6, Leading zero omitted, Abs format (unit mm)*
G04 Created by KiCad (PCBNEW 5.0.0-rc3-6a2723a~65~ubuntu16.04.1) date Fri Apr 26 01:55:19 2019*
%MOMM*%
%LPD*%
G01*
G04 APERTURE LIST*
%ADD10R,2.100000X2.100000*%
%ADD11O,2.100000X2.100000*%
%ADD12C,1.670000*%
%ADD13C,0.100000*%
%ADD14C,0.990000*%
%ADD15C,1.275000*%
%ADD16R,1.100000X2.150000*%
%ADD17R,1.700000X1.900000*%
%ADD18R,1.200000X1.900000*%
%ADD19R,1.850000X1.400000*%
%ADD20R,1.200000X1.800000*%
%ADD21R,1.900000X1.900000*%
%ADD22R,1.400000X1.950000*%
%ADD23C,1.900000*%
G04 APERTURE END LIST*
D10*
G04 #@! TO.C,J1*
X111100000Y-127200000D03*
D11*
X113640000Y-127200000D03*
X111100000Y-124660000D03*
X113640000Y-124660000D03*
X111100000Y-122120000D03*
X113640000Y-122120000D03*
X111100000Y-119580000D03*
X113640000Y-119580000D03*
X111100000Y-117040000D03*
X113640000Y-117040000D03*
X111100000Y-114500000D03*
X113640000Y-114500000D03*
X111100000Y-111960000D03*
X113640000Y-111960000D03*
X111100000Y-109420000D03*
X113640000Y-109420000D03*
X111100000Y-106880000D03*
X113640000Y-106880000D03*
X111100000Y-104340000D03*
X113640000Y-104340000D03*
X111100000Y-101800000D03*
X113640000Y-101800000D03*
X111100000Y-99260000D03*
X113640000Y-99260000D03*
X111100000Y-96720000D03*
X113640000Y-96720000D03*
X111100000Y-94180000D03*
X113640000Y-94180000D03*
X111100000Y-91640000D03*
X113640000Y-91640000D03*
X111100000Y-89100000D03*
X113640000Y-89100000D03*
X111100000Y-86560000D03*
X113640000Y-86560000D03*
X111100000Y-84020000D03*
X113640000Y-84020000D03*
X111100000Y-81480000D03*
X113640000Y-81480000D03*
X111100000Y-78940000D03*
X113640000Y-78940000D03*
G04 #@! TD*
G04 #@! TO.C,J2*
X122590000Y-78940000D03*
X120050000Y-78940000D03*
X122590000Y-81480000D03*
X120050000Y-81480000D03*
X122590000Y-84020000D03*
X120050000Y-84020000D03*
X122590000Y-86560000D03*
X120050000Y-86560000D03*
X122590000Y-89100000D03*
X120050000Y-89100000D03*
X122590000Y-91640000D03*
X120050000Y-91640000D03*
X122590000Y-94180000D03*
X120050000Y-94180000D03*
X122590000Y-96720000D03*
X120050000Y-96720000D03*
X122590000Y-99260000D03*
X120050000Y-99260000D03*
X122590000Y-101800000D03*
X120050000Y-101800000D03*
X122590000Y-104340000D03*
X120050000Y-104340000D03*
X122590000Y-106880000D03*
X120050000Y-106880000D03*
X122590000Y-109420000D03*
X120050000Y-109420000D03*
X122590000Y-111960000D03*
X120050000Y-111960000D03*
X122590000Y-114500000D03*
X120050000Y-114500000D03*
X122590000Y-117040000D03*
X120050000Y-117040000D03*
X122590000Y-119580000D03*
X120050000Y-119580000D03*
X122590000Y-122120000D03*
X120050000Y-122120000D03*
X122590000Y-124660000D03*
X120050000Y-124660000D03*
X122590000Y-127200000D03*
D10*
X120050000Y-127200000D03*
G04 #@! TD*
G04 #@! TO.C,J3*
X170300000Y-127200000D03*
D11*
X172840000Y-127200000D03*
X170300000Y-124660000D03*
X172840000Y-124660000D03*
X170300000Y-122120000D03*
X172840000Y-122120000D03*
X170300000Y-119580000D03*
X172840000Y-119580000D03*
X170300000Y-117040000D03*
X172840000Y-117040000D03*
X170300000Y-114500000D03*
X172840000Y-114500000D03*
X170300000Y-111960000D03*
X172840000Y-111960000D03*
X170300000Y-109420000D03*
X172840000Y-109420000D03*
X170300000Y-106880000D03*
X172840000Y-106880000D03*
X170300000Y-104340000D03*
X172840000Y-104340000D03*
X170300000Y-101800000D03*
X172840000Y-101800000D03*
X170300000Y-99260000D03*
X172840000Y-99260000D03*
X170300000Y-96720000D03*
X172840000Y-96720000D03*
X170300000Y-94180000D03*
X172840000Y-94180000D03*
X170300000Y-91640000D03*
X172840000Y-91640000D03*
X170300000Y-89100000D03*
X172840000Y-89100000D03*
X170300000Y-86560000D03*
X172840000Y-86560000D03*
X170300000Y-84020000D03*
X172840000Y-84020000D03*
X170300000Y-81480000D03*
X172840000Y-81480000D03*
X170300000Y-78940000D03*
X172840000Y-78940000D03*
G04 #@! TD*
G04 #@! TO.C,J4*
X181740000Y-78940000D03*
X179200000Y-78940000D03*
X181740000Y-81480000D03*
X179200000Y-81480000D03*
X181740000Y-84020000D03*
X179200000Y-84020000D03*
X181740000Y-86560000D03*
X179200000Y-86560000D03*
X181740000Y-89100000D03*
X179200000Y-89100000D03*
X181740000Y-91640000D03*
X179200000Y-91640000D03*
X181740000Y-94180000D03*
X179200000Y-94180000D03*
X181740000Y-96720000D03*
X179200000Y-96720000D03*
X181740000Y-99260000D03*
X179200000Y-99260000D03*
X181740000Y-101800000D03*
X179200000Y-101800000D03*
X181740000Y-104340000D03*
X179200000Y-104340000D03*
X181740000Y-106880000D03*
X179200000Y-106880000D03*
X181740000Y-109420000D03*
X179200000Y-109420000D03*
X181740000Y-111960000D03*
X179200000Y-111960000D03*
X181740000Y-114500000D03*
X179200000Y-114500000D03*
X181740000Y-117040000D03*
X179200000Y-117040000D03*
X181740000Y-119580000D03*
X179200000Y-119580000D03*
X181740000Y-122120000D03*
X179200000Y-122120000D03*
X181740000Y-124660000D03*
X179200000Y-124660000D03*
X181740000Y-127200000D03*
D10*
X179200000Y-127200000D03*
G04 #@! TD*
D12*
G04 #@! TO.C,J5*
X146350000Y-130090000D03*
X149400000Y-75710000D03*
G04 #@! TD*
D13*
G04 #@! TO.C,C1*
G36*
X138871759Y-122941192D02*
X138895785Y-122944756D01*
X138919345Y-122950657D01*
X138942214Y-122958840D01*
X138964171Y-122969224D01*
X138985004Y-122981711D01*
X139004512Y-122996180D01*
X139022509Y-123012491D01*
X139038820Y-123030488D01*
X139053289Y-123049996D01*
X139065776Y-123070829D01*
X139076160Y-123092786D01*
X139084343Y-123115655D01*
X139090244Y-123139215D01*
X139093808Y-123163241D01*
X139095000Y-123187500D01*
X139095000Y-123682500D01*
X139093808Y-123706759D01*
X139090244Y-123730785D01*
X139084343Y-123754345D01*
X139076160Y-123777214D01*
X139065776Y-123799171D01*
X139053289Y-123820004D01*
X139038820Y-123839512D01*
X139022509Y-123857509D01*
X139004512Y-123873820D01*
X138985004Y-123888289D01*
X138964171Y-123900776D01*
X138942214Y-123911160D01*
X138919345Y-123919343D01*
X138895785Y-123925244D01*
X138871759Y-123928808D01*
X138847500Y-123930000D01*
X138302500Y-123930000D01*
X138278241Y-123928808D01*
X138254215Y-123925244D01*
X138230655Y-123919343D01*
X138207786Y-123911160D01*
X138185829Y-123900776D01*
X138164996Y-123888289D01*
X138145488Y-123873820D01*
X138127491Y-123857509D01*
X138111180Y-123839512D01*
X138096711Y-123820004D01*
X138084224Y-123799171D01*
X138073840Y-123777214D01*
X138065657Y-123754345D01*
X138059756Y-123730785D01*
X138056192Y-123706759D01*
X138055000Y-123682500D01*
X138055000Y-123187500D01*
X138056192Y-123163241D01*
X138059756Y-123139215D01*
X138065657Y-123115655D01*
X138073840Y-123092786D01*
X138084224Y-123070829D01*
X138096711Y-123049996D01*
X138111180Y-123030488D01*
X138127491Y-123012491D01*
X138145488Y-122996180D01*
X138164996Y-122981711D01*
X138185829Y-122969224D01*
X138207786Y-122958840D01*
X138230655Y-122950657D01*
X138254215Y-122944756D01*
X138278241Y-122941192D01*
X138302500Y-122940000D01*
X138847500Y-122940000D01*
X138871759Y-122941192D01*
X138871759Y-122941192D01*
G37*
D14*
X138575000Y-123435000D03*
D13*
G36*
X138871759Y-121971192D02*
X138895785Y-121974756D01*
X138919345Y-121980657D01*
X138942214Y-121988840D01*
X138964171Y-121999224D01*
X138985004Y-122011711D01*
X139004512Y-122026180D01*
X139022509Y-122042491D01*
X139038820Y-122060488D01*
X139053289Y-122079996D01*
X139065776Y-122100829D01*
X139076160Y-122122786D01*
X139084343Y-122145655D01*
X139090244Y-122169215D01*
X139093808Y-122193241D01*
X139095000Y-122217500D01*
X139095000Y-122712500D01*
X139093808Y-122736759D01*
X139090244Y-122760785D01*
X139084343Y-122784345D01*
X139076160Y-122807214D01*
X139065776Y-122829171D01*
X139053289Y-122850004D01*
X139038820Y-122869512D01*
X139022509Y-122887509D01*
X139004512Y-122903820D01*
X138985004Y-122918289D01*
X138964171Y-122930776D01*
X138942214Y-122941160D01*
X138919345Y-122949343D01*
X138895785Y-122955244D01*
X138871759Y-122958808D01*
X138847500Y-122960000D01*
X138302500Y-122960000D01*
X138278241Y-122958808D01*
X138254215Y-122955244D01*
X138230655Y-122949343D01*
X138207786Y-122941160D01*
X138185829Y-122930776D01*
X138164996Y-122918289D01*
X138145488Y-122903820D01*
X138127491Y-122887509D01*
X138111180Y-122869512D01*
X138096711Y-122850004D01*
X138084224Y-122829171D01*
X138073840Y-122807214D01*
X138065657Y-122784345D01*
X138059756Y-122760785D01*
X138056192Y-122736759D01*
X138055000Y-122712500D01*
X138055000Y-122217500D01*
X138056192Y-122193241D01*
X138059756Y-122169215D01*
X138065657Y-122145655D01*
X138073840Y-122122786D01*
X138084224Y-122100829D01*
X138096711Y-122079996D01*
X138111180Y-122060488D01*
X138127491Y-122042491D01*
X138145488Y-122026180D01*
X138164996Y-122011711D01*
X138185829Y-121999224D01*
X138207786Y-121988840D01*
X138230655Y-121980657D01*
X138254215Y-121974756D01*
X138278241Y-121971192D01*
X138302500Y-121970000D01*
X138847500Y-121970000D01*
X138871759Y-121971192D01*
X138871759Y-121971192D01*
G37*
D14*
X138575000Y-122465000D03*
G04 #@! TD*
D13*
G04 #@! TO.C,D1*
G36*
X138687493Y-129026535D02*
X138718435Y-129031125D01*
X138748778Y-129038725D01*
X138778230Y-129049263D01*
X138806508Y-129062638D01*
X138833338Y-129078719D01*
X138858463Y-129097353D01*
X138881640Y-129118360D01*
X138902647Y-129141537D01*
X138921281Y-129166662D01*
X138937362Y-129193492D01*
X138950737Y-129221770D01*
X138961275Y-129251222D01*
X138968875Y-129281565D01*
X138973465Y-129312507D01*
X138975000Y-129343750D01*
X138975000Y-129981250D01*
X138973465Y-130012493D01*
X138968875Y-130043435D01*
X138961275Y-130073778D01*
X138950737Y-130103230D01*
X138937362Y-130131508D01*
X138921281Y-130158338D01*
X138902647Y-130183463D01*
X138881640Y-130206640D01*
X138858463Y-130227647D01*
X138833338Y-130246281D01*
X138806508Y-130262362D01*
X138778230Y-130275737D01*
X138748778Y-130286275D01*
X138718435Y-130293875D01*
X138687493Y-130298465D01*
X138656250Y-130300000D01*
X137943750Y-130300000D01*
X137912507Y-130298465D01*
X137881565Y-130293875D01*
X137851222Y-130286275D01*
X137821770Y-130275737D01*
X137793492Y-130262362D01*
X137766662Y-130246281D01*
X137741537Y-130227647D01*
X137718360Y-130206640D01*
X137697353Y-130183463D01*
X137678719Y-130158338D01*
X137662638Y-130131508D01*
X137649263Y-130103230D01*
X137638725Y-130073778D01*
X137631125Y-130043435D01*
X137626535Y-130012493D01*
X137625000Y-129981250D01*
X137625000Y-129343750D01*
X137626535Y-129312507D01*
X137631125Y-129281565D01*
X137638725Y-129251222D01*
X137649263Y-129221770D01*
X137662638Y-129193492D01*
X137678719Y-129166662D01*
X137697353Y-129141537D01*
X137718360Y-129118360D01*
X137741537Y-129097353D01*
X137766662Y-129078719D01*
X137793492Y-129062638D01*
X137821770Y-129049263D01*
X137851222Y-129038725D01*
X137881565Y-129031125D01*
X137912507Y-129026535D01*
X137943750Y-129025000D01*
X138656250Y-129025000D01*
X138687493Y-129026535D01*
X138687493Y-129026535D01*
G37*
D15*
X138300000Y-129662500D03*
D13*
G36*
X138687493Y-130601535D02*
X138718435Y-130606125D01*
X138748778Y-130613725D01*
X138778230Y-130624263D01*
X138806508Y-130637638D01*
X138833338Y-130653719D01*
X138858463Y-130672353D01*
X138881640Y-130693360D01*
X138902647Y-130716537D01*
X138921281Y-130741662D01*
X138937362Y-130768492D01*
X138950737Y-130796770D01*
X138961275Y-130826222D01*
X138968875Y-130856565D01*
X138973465Y-130887507D01*
X138975000Y-130918750D01*
X138975000Y-131556250D01*
X138973465Y-131587493D01*
X138968875Y-131618435D01*
X138961275Y-131648778D01*
X138950737Y-131678230D01*
X138937362Y-131706508D01*
X138921281Y-131733338D01*
X138902647Y-131758463D01*
X138881640Y-131781640D01*
X138858463Y-131802647D01*
X138833338Y-131821281D01*
X138806508Y-131837362D01*
X138778230Y-131850737D01*
X138748778Y-131861275D01*
X138718435Y-131868875D01*
X138687493Y-131873465D01*
X138656250Y-131875000D01*
X137943750Y-131875000D01*
X137912507Y-131873465D01*
X137881565Y-131868875D01*
X137851222Y-131861275D01*
X137821770Y-131850737D01*
X137793492Y-131837362D01*
X137766662Y-131821281D01*
X137741537Y-131802647D01*
X137718360Y-131781640D01*
X137697353Y-131758463D01*
X137678719Y-131733338D01*
X137662638Y-131706508D01*
X137649263Y-131678230D01*
X137638725Y-131648778D01*
X137631125Y-131618435D01*
X137626535Y-131587493D01*
X137625000Y-131556250D01*
X137625000Y-130918750D01*
X137626535Y-130887507D01*
X137631125Y-130856565D01*
X137638725Y-130826222D01*
X137649263Y-130796770D01*
X137662638Y-130768492D01*
X137678719Y-130741662D01*
X137697353Y-130716537D01*
X137718360Y-130693360D01*
X137741537Y-130672353D01*
X137766662Y-130653719D01*
X137793492Y-130637638D01*
X137821770Y-130624263D01*
X137851222Y-130613725D01*
X137881565Y-130606125D01*
X137912507Y-130601535D01*
X137943750Y-130600000D01*
X138656250Y-130600000D01*
X138687493Y-130601535D01*
X138687493Y-130601535D01*
G37*
D15*
X138300000Y-131237500D03*
G04 #@! TD*
D16*
G04 #@! TO.C,J6*
X141845001Y-122000001D03*
D17*
X140645001Y-122125001D03*
D18*
X140395001Y-129725001D03*
D19*
X140720001Y-131225001D03*
D20*
X152345001Y-130375001D03*
D16*
X142945001Y-122000001D03*
X144045001Y-122000001D03*
X145145001Y-122000001D03*
X146245001Y-122000001D03*
X147345001Y-122000001D03*
X148445001Y-122000001D03*
X149545001Y-122000001D03*
D21*
X151995001Y-122125001D03*
D22*
X151945001Y-132800001D03*
G04 #@! TD*
D13*
G04 #@! TO.C,R1*
G36*
X134886759Y-130706192D02*
X134910785Y-130709756D01*
X134934345Y-130715657D01*
X134957214Y-130723840D01*
X134979171Y-130734224D01*
X135000004Y-130746711D01*
X135019512Y-130761180D01*
X135037509Y-130777491D01*
X135053820Y-130795488D01*
X135068289Y-130814996D01*
X135080776Y-130835829D01*
X135091160Y-130857786D01*
X135099343Y-130880655D01*
X135105244Y-130904215D01*
X135108808Y-130928241D01*
X135110000Y-130952500D01*
X135110000Y-131497500D01*
X135108808Y-131521759D01*
X135105244Y-131545785D01*
X135099343Y-131569345D01*
X135091160Y-131592214D01*
X135080776Y-131614171D01*
X135068289Y-131635004D01*
X135053820Y-131654512D01*
X135037509Y-131672509D01*
X135019512Y-131688820D01*
X135000004Y-131703289D01*
X134979171Y-131715776D01*
X134957214Y-131726160D01*
X134934345Y-131734343D01*
X134910785Y-131740244D01*
X134886759Y-131743808D01*
X134862500Y-131745000D01*
X134367500Y-131745000D01*
X134343241Y-131743808D01*
X134319215Y-131740244D01*
X134295655Y-131734343D01*
X134272786Y-131726160D01*
X134250829Y-131715776D01*
X134229996Y-131703289D01*
X134210488Y-131688820D01*
X134192491Y-131672509D01*
X134176180Y-131654512D01*
X134161711Y-131635004D01*
X134149224Y-131614171D01*
X134138840Y-131592214D01*
X134130657Y-131569345D01*
X134124756Y-131545785D01*
X134121192Y-131521759D01*
X134120000Y-131497500D01*
X134120000Y-130952500D01*
X134121192Y-130928241D01*
X134124756Y-130904215D01*
X134130657Y-130880655D01*
X134138840Y-130857786D01*
X134149224Y-130835829D01*
X134161711Y-130814996D01*
X134176180Y-130795488D01*
X134192491Y-130777491D01*
X134210488Y-130761180D01*
X134229996Y-130746711D01*
X134250829Y-130734224D01*
X134272786Y-130723840D01*
X134295655Y-130715657D01*
X134319215Y-130709756D01*
X134343241Y-130706192D01*
X134367500Y-130705000D01*
X134862500Y-130705000D01*
X134886759Y-130706192D01*
X134886759Y-130706192D01*
G37*
D14*
X134615000Y-131225000D03*
D13*
G36*
X135856759Y-130706192D02*
X135880785Y-130709756D01*
X135904345Y-130715657D01*
X135927214Y-130723840D01*
X135949171Y-130734224D01*
X135970004Y-130746711D01*
X135989512Y-130761180D01*
X136007509Y-130777491D01*
X136023820Y-130795488D01*
X136038289Y-130814996D01*
X136050776Y-130835829D01*
X136061160Y-130857786D01*
X136069343Y-130880655D01*
X136075244Y-130904215D01*
X136078808Y-130928241D01*
X136080000Y-130952500D01*
X136080000Y-131497500D01*
X136078808Y-131521759D01*
X136075244Y-131545785D01*
X136069343Y-131569345D01*
X136061160Y-131592214D01*
X136050776Y-131614171D01*
X136038289Y-131635004D01*
X136023820Y-131654512D01*
X136007509Y-131672509D01*
X135989512Y-131688820D01*
X135970004Y-131703289D01*
X135949171Y-131715776D01*
X135927214Y-131726160D01*
X135904345Y-131734343D01*
X135880785Y-131740244D01*
X135856759Y-131743808D01*
X135832500Y-131745000D01*
X135337500Y-131745000D01*
X135313241Y-131743808D01*
X135289215Y-131740244D01*
X135265655Y-131734343D01*
X135242786Y-131726160D01*
X135220829Y-131715776D01*
X135199996Y-131703289D01*
X135180488Y-131688820D01*
X135162491Y-131672509D01*
X135146180Y-131654512D01*
X135131711Y-131635004D01*
X135119224Y-131614171D01*
X135108840Y-131592214D01*
X135100657Y-131569345D01*
X135094756Y-131545785D01*
X135091192Y-131521759D01*
X135090000Y-131497500D01*
X135090000Y-130952500D01*
X135091192Y-130928241D01*
X135094756Y-130904215D01*
X135100657Y-130880655D01*
X135108840Y-130857786D01*
X135119224Y-130835829D01*
X135131711Y-130814996D01*
X135146180Y-130795488D01*
X135162491Y-130777491D01*
X135180488Y-130761180D01*
X135199996Y-130746711D01*
X135220829Y-130734224D01*
X135242786Y-130723840D01*
X135265655Y-130715657D01*
X135289215Y-130709756D01*
X135313241Y-130706192D01*
X135337500Y-130705000D01*
X135832500Y-130705000D01*
X135856759Y-130706192D01*
X135856759Y-130706192D01*
G37*
D14*
X135585000Y-131225000D03*
G04 #@! TD*
D23*
G04 #@! TO.C,TP1*
X146350000Y-73950000D03*
G04 #@! TD*
M02*
