G04 #@! TF.GenerationSoftware,KiCad,Pcbnew,5.0.0-rc3-6a2723a~65~ubuntu16.04.1*
G04 #@! TF.CreationDate,2019-04-26T01:55:19+06:00*
G04 #@! TF.ProjectId,ICE40ADP,49434534304144502E6B696361645F70,rev?*
G04 #@! TF.SameCoordinates,Original*
G04 #@! TF.FileFunction,Legend,Bot*
G04 #@! TF.FilePolarity,Positive*
%FSLAX46Y46*%
G04 Gerber Fmt 4.6, Leading zero omitted, Abs format (unit mm)*
G04 Created by KiCad (PCBNEW 5.0.0-rc3-6a2723a~65~ubuntu16.04.1) date Fri Apr 26 01:55:19 2019*
%MOMM*%
%LPD*%
G01*
G04 APERTURE LIST*
%ADD10C,0.120000*%
%ADD11C,0.150000*%
G04 APERTURE END LIST*
D10*
G04 #@! TO.C,J1*
X109770000Y-77610000D02*
X114970000Y-77610000D01*
X109770000Y-125930000D02*
X109770000Y-77610000D01*
X114970000Y-128530000D02*
X114970000Y-77610000D01*
X109770000Y-125930000D02*
X112370000Y-125930000D01*
X112370000Y-125930000D02*
X112370000Y-128530000D01*
X112370000Y-128530000D02*
X114970000Y-128530000D01*
X109770000Y-127200000D02*
X109770000Y-128530000D01*
X109770000Y-128530000D02*
X111100000Y-128530000D01*
G04 #@! TO.C,J2*
X118720000Y-128530000D02*
X120050000Y-128530000D01*
X118720000Y-127200000D02*
X118720000Y-128530000D01*
X121320000Y-128530000D02*
X123920000Y-128530000D01*
X121320000Y-125930000D02*
X121320000Y-128530000D01*
X118720000Y-125930000D02*
X121320000Y-125930000D01*
X123920000Y-128530000D02*
X123920000Y-77610000D01*
X118720000Y-125930000D02*
X118720000Y-77610000D01*
X118720000Y-77610000D02*
X123920000Y-77610000D01*
G04 #@! TO.C,J3*
X168970000Y-77610000D02*
X174170000Y-77610000D01*
X168970000Y-125930000D02*
X168970000Y-77610000D01*
X174170000Y-128530000D02*
X174170000Y-77610000D01*
X168970000Y-125930000D02*
X171570000Y-125930000D01*
X171570000Y-125930000D02*
X171570000Y-128530000D01*
X171570000Y-128530000D02*
X174170000Y-128530000D01*
X168970000Y-127200000D02*
X168970000Y-128530000D01*
X168970000Y-128530000D02*
X170300000Y-128530000D01*
G04 #@! TO.C,J4*
X177870000Y-128530000D02*
X179200000Y-128530000D01*
X177870000Y-127200000D02*
X177870000Y-128530000D01*
X180470000Y-128530000D02*
X183070000Y-128530000D01*
X180470000Y-125930000D02*
X180470000Y-128530000D01*
X177870000Y-125930000D02*
X180470000Y-125930000D01*
X183070000Y-128530000D02*
X183070000Y-77610000D01*
X177870000Y-125930000D02*
X177870000Y-77610000D01*
X177870000Y-77610000D02*
X183070000Y-77610000D01*
G04 #@! TO.C,D1*
X137565000Y-131250000D02*
X137565000Y-128965000D01*
X137565000Y-128965000D02*
X139035000Y-128965000D01*
X139035000Y-128965000D02*
X139035000Y-131250000D01*
G04 #@! TO.C,J6*
X152805001Y-129425001D02*
X152805001Y-123125001D01*
X139935001Y-128725001D02*
X139935001Y-123125001D01*
X152805001Y-133135001D02*
X152805001Y-131325001D01*
X139935001Y-133135001D02*
X151195001Y-133135001D01*
X139935001Y-131975001D02*
X139935001Y-133135001D01*
X152695001Y-133135001D02*
X152805001Y-133135001D01*
G04 #@! TO.C,TP1*
X147300000Y-73950000D02*
G75*
G03X147300000Y-73950000I-950000J0D01*
G01*
G04 #@! TO.C,J1*
D11*
X112703333Y-128982380D02*
X112703333Y-129696666D01*
X112750952Y-129839523D01*
X112846190Y-129934761D01*
X112989047Y-129982380D01*
X113084285Y-129982380D01*
X111703333Y-129982380D02*
X112274761Y-129982380D01*
X111989047Y-129982380D02*
X111989047Y-128982380D01*
X112084285Y-129125238D01*
X112179523Y-129220476D01*
X112274761Y-129268095D01*
G04 #@! TO.C,J2*
X121653333Y-128982380D02*
X121653333Y-129696666D01*
X121700952Y-129839523D01*
X121796190Y-129934761D01*
X121939047Y-129982380D01*
X122034285Y-129982380D01*
X121224761Y-129077619D02*
X121177142Y-129030000D01*
X121081904Y-128982380D01*
X120843809Y-128982380D01*
X120748571Y-129030000D01*
X120700952Y-129077619D01*
X120653333Y-129172857D01*
X120653333Y-129268095D01*
X120700952Y-129410952D01*
X121272380Y-129982380D01*
X120653333Y-129982380D01*
G04 #@! TO.C,J3*
X171903333Y-128982380D02*
X171903333Y-129696666D01*
X171950952Y-129839523D01*
X172046190Y-129934761D01*
X172189047Y-129982380D01*
X172284285Y-129982380D01*
X171522380Y-128982380D02*
X170903333Y-128982380D01*
X171236666Y-129363333D01*
X171093809Y-129363333D01*
X170998571Y-129410952D01*
X170950952Y-129458571D01*
X170903333Y-129553809D01*
X170903333Y-129791904D01*
X170950952Y-129887142D01*
X170998571Y-129934761D01*
X171093809Y-129982380D01*
X171379523Y-129982380D01*
X171474761Y-129934761D01*
X171522380Y-129887142D01*
G04 #@! TO.C,J4*
X180803333Y-128982380D02*
X180803333Y-129696666D01*
X180850952Y-129839523D01*
X180946190Y-129934761D01*
X181089047Y-129982380D01*
X181184285Y-129982380D01*
X179898571Y-129315714D02*
X179898571Y-129982380D01*
X180136666Y-128934761D02*
X180374761Y-129649047D01*
X179755714Y-129649047D01*
G04 #@! TO.C,C1*
X138882142Y-124758333D02*
X138929761Y-124710714D01*
X138977380Y-124567857D01*
X138977380Y-124472619D01*
X138929761Y-124329761D01*
X138834523Y-124234523D01*
X138739285Y-124186904D01*
X138548809Y-124139285D01*
X138405952Y-124139285D01*
X138215476Y-124186904D01*
X138120238Y-124234523D01*
X138025000Y-124329761D01*
X137977380Y-124472619D01*
X137977380Y-124567857D01*
X138025000Y-124710714D01*
X138072619Y-124758333D01*
X138977380Y-125710714D02*
X138977380Y-125139285D01*
X138977380Y-125425000D02*
X137977380Y-125425000D01*
X138120238Y-125329761D01*
X138215476Y-125234523D01*
X138263095Y-125139285D01*
G04 #@! TO.C,D1*
X137322380Y-129711904D02*
X136322380Y-129711904D01*
X136322380Y-129950000D01*
X136370000Y-130092857D01*
X136465238Y-130188095D01*
X136560476Y-130235714D01*
X136750952Y-130283333D01*
X136893809Y-130283333D01*
X137084285Y-130235714D01*
X137179523Y-130188095D01*
X137274761Y-130092857D01*
X137322380Y-129950000D01*
X137322380Y-129711904D01*
X137322380Y-131235714D02*
X137322380Y-130664285D01*
X137322380Y-130950000D02*
X136322380Y-130950000D01*
X136465238Y-130854761D01*
X136560476Y-130759523D01*
X136608095Y-130664285D01*
G04 #@! TO.C,J6*
X146678334Y-134427381D02*
X146678334Y-135141667D01*
X146725953Y-135284524D01*
X146821191Y-135379762D01*
X146964048Y-135427381D01*
X147059286Y-135427381D01*
X145773572Y-134427381D02*
X145964048Y-134427381D01*
X146059286Y-134475001D01*
X146106905Y-134522620D01*
X146202143Y-134665477D01*
X146249762Y-134855953D01*
X146249762Y-135236905D01*
X146202143Y-135332143D01*
X146154524Y-135379762D01*
X146059286Y-135427381D01*
X145868810Y-135427381D01*
X145773572Y-135379762D01*
X145725953Y-135332143D01*
X145678334Y-135236905D01*
X145678334Y-134998810D01*
X145725953Y-134903572D01*
X145773572Y-134855953D01*
X145868810Y-134808334D01*
X146059286Y-134808334D01*
X146154524Y-134855953D01*
X146202143Y-134903572D01*
X146249762Y-134998810D01*
G04 #@! TO.C,R1*
X135266666Y-132847380D02*
X135600000Y-132371190D01*
X135838095Y-132847380D02*
X135838095Y-131847380D01*
X135457142Y-131847380D01*
X135361904Y-131895000D01*
X135314285Y-131942619D01*
X135266666Y-132037857D01*
X135266666Y-132180714D01*
X135314285Y-132275952D01*
X135361904Y-132323571D01*
X135457142Y-132371190D01*
X135838095Y-132371190D01*
X134314285Y-132847380D02*
X134885714Y-132847380D01*
X134600000Y-132847380D02*
X134600000Y-131847380D01*
X134695238Y-131990238D01*
X134790476Y-132085476D01*
X134885714Y-132133095D01*
G04 #@! TO.C,TP1*
X147611904Y-75050380D02*
X147040476Y-75050380D01*
X147326190Y-76050380D02*
X147326190Y-75050380D01*
X146707142Y-76050380D02*
X146707142Y-75050380D01*
X146326190Y-75050380D01*
X146230952Y-75098000D01*
X146183333Y-75145619D01*
X146135714Y-75240857D01*
X146135714Y-75383714D01*
X146183333Y-75478952D01*
X146230952Y-75526571D01*
X146326190Y-75574190D01*
X146707142Y-75574190D01*
X145183333Y-76050380D02*
X145754761Y-76050380D01*
X145469047Y-76050380D02*
X145469047Y-75050380D01*
X145564285Y-75193238D01*
X145659523Y-75288476D01*
X145754761Y-75336095D01*
G04 #@! TD*
M02*
