G04 #@! TF.GenerationSoftware,KiCad,Pcbnew,5.0.0-rc3-6a2723a~65~ubuntu16.04.1*
G04 #@! TF.CreationDate,2019-04-26T01:55:19+06:00*
G04 #@! TF.ProjectId,ICE40ADP,49434534304144502E6B696361645F70,rev?*
G04 #@! TF.SameCoordinates,Original*
G04 #@! TF.FileFunction,Paste,Bot*
G04 #@! TF.FilePolarity,Positive*
%FSLAX46Y46*%
G04 Gerber Fmt 4.6, Leading zero omitted, Abs format (unit mm)*
G04 Created by KiCad (PCBNEW 5.0.0-rc3-6a2723a~65~ubuntu16.04.1) date Fri Apr 26 01:55:19 2019*
%MOMM*%
%LPD*%
G01*
G04 APERTURE LIST*
%ADD10C,1.270000*%
%ADD11C,0.100000*%
%ADD12C,0.590000*%
%ADD13C,0.875000*%
%ADD14R,0.700000X1.750000*%
%ADD15R,1.300000X1.500000*%
%ADD16R,0.800000X1.500000*%
%ADD17R,1.450000X1.000000*%
%ADD18R,0.800000X1.400000*%
%ADD19R,1.500000X1.500000*%
%ADD20R,1.000000X1.550000*%
G04 APERTURE END LIST*
D10*
G04 #@! TO.C,J5*
X146350000Y-130090000D03*
X149400000Y-75710000D03*
G04 #@! TD*
D11*
G04 #@! TO.C,C1*
G36*
X138761958Y-123140710D02*
X138776276Y-123142834D01*
X138790317Y-123146351D01*
X138803946Y-123151228D01*
X138817031Y-123157417D01*
X138829447Y-123164858D01*
X138841073Y-123173481D01*
X138851798Y-123183202D01*
X138861519Y-123193927D01*
X138870142Y-123205553D01*
X138877583Y-123217969D01*
X138883772Y-123231054D01*
X138888649Y-123244683D01*
X138892166Y-123258724D01*
X138894290Y-123273042D01*
X138895000Y-123287500D01*
X138895000Y-123582500D01*
X138894290Y-123596958D01*
X138892166Y-123611276D01*
X138888649Y-123625317D01*
X138883772Y-123638946D01*
X138877583Y-123652031D01*
X138870142Y-123664447D01*
X138861519Y-123676073D01*
X138851798Y-123686798D01*
X138841073Y-123696519D01*
X138829447Y-123705142D01*
X138817031Y-123712583D01*
X138803946Y-123718772D01*
X138790317Y-123723649D01*
X138776276Y-123727166D01*
X138761958Y-123729290D01*
X138747500Y-123730000D01*
X138402500Y-123730000D01*
X138388042Y-123729290D01*
X138373724Y-123727166D01*
X138359683Y-123723649D01*
X138346054Y-123718772D01*
X138332969Y-123712583D01*
X138320553Y-123705142D01*
X138308927Y-123696519D01*
X138298202Y-123686798D01*
X138288481Y-123676073D01*
X138279858Y-123664447D01*
X138272417Y-123652031D01*
X138266228Y-123638946D01*
X138261351Y-123625317D01*
X138257834Y-123611276D01*
X138255710Y-123596958D01*
X138255000Y-123582500D01*
X138255000Y-123287500D01*
X138255710Y-123273042D01*
X138257834Y-123258724D01*
X138261351Y-123244683D01*
X138266228Y-123231054D01*
X138272417Y-123217969D01*
X138279858Y-123205553D01*
X138288481Y-123193927D01*
X138298202Y-123183202D01*
X138308927Y-123173481D01*
X138320553Y-123164858D01*
X138332969Y-123157417D01*
X138346054Y-123151228D01*
X138359683Y-123146351D01*
X138373724Y-123142834D01*
X138388042Y-123140710D01*
X138402500Y-123140000D01*
X138747500Y-123140000D01*
X138761958Y-123140710D01*
X138761958Y-123140710D01*
G37*
D12*
X138575000Y-123435000D03*
D11*
G36*
X138761958Y-122170710D02*
X138776276Y-122172834D01*
X138790317Y-122176351D01*
X138803946Y-122181228D01*
X138817031Y-122187417D01*
X138829447Y-122194858D01*
X138841073Y-122203481D01*
X138851798Y-122213202D01*
X138861519Y-122223927D01*
X138870142Y-122235553D01*
X138877583Y-122247969D01*
X138883772Y-122261054D01*
X138888649Y-122274683D01*
X138892166Y-122288724D01*
X138894290Y-122303042D01*
X138895000Y-122317500D01*
X138895000Y-122612500D01*
X138894290Y-122626958D01*
X138892166Y-122641276D01*
X138888649Y-122655317D01*
X138883772Y-122668946D01*
X138877583Y-122682031D01*
X138870142Y-122694447D01*
X138861519Y-122706073D01*
X138851798Y-122716798D01*
X138841073Y-122726519D01*
X138829447Y-122735142D01*
X138817031Y-122742583D01*
X138803946Y-122748772D01*
X138790317Y-122753649D01*
X138776276Y-122757166D01*
X138761958Y-122759290D01*
X138747500Y-122760000D01*
X138402500Y-122760000D01*
X138388042Y-122759290D01*
X138373724Y-122757166D01*
X138359683Y-122753649D01*
X138346054Y-122748772D01*
X138332969Y-122742583D01*
X138320553Y-122735142D01*
X138308927Y-122726519D01*
X138298202Y-122716798D01*
X138288481Y-122706073D01*
X138279858Y-122694447D01*
X138272417Y-122682031D01*
X138266228Y-122668946D01*
X138261351Y-122655317D01*
X138257834Y-122641276D01*
X138255710Y-122626958D01*
X138255000Y-122612500D01*
X138255000Y-122317500D01*
X138255710Y-122303042D01*
X138257834Y-122288724D01*
X138261351Y-122274683D01*
X138266228Y-122261054D01*
X138272417Y-122247969D01*
X138279858Y-122235553D01*
X138288481Y-122223927D01*
X138298202Y-122213202D01*
X138308927Y-122203481D01*
X138320553Y-122194858D01*
X138332969Y-122187417D01*
X138346054Y-122181228D01*
X138359683Y-122176351D01*
X138373724Y-122172834D01*
X138388042Y-122170710D01*
X138402500Y-122170000D01*
X138747500Y-122170000D01*
X138761958Y-122170710D01*
X138761958Y-122170710D01*
G37*
D12*
X138575000Y-122465000D03*
G04 #@! TD*
D11*
G04 #@! TO.C,D1*
G36*
X138577691Y-129226053D02*
X138598926Y-129229203D01*
X138619750Y-129234419D01*
X138639962Y-129241651D01*
X138659368Y-129250830D01*
X138677781Y-129261866D01*
X138695024Y-129274654D01*
X138710930Y-129289070D01*
X138725346Y-129304976D01*
X138738134Y-129322219D01*
X138749170Y-129340632D01*
X138758349Y-129360038D01*
X138765581Y-129380250D01*
X138770797Y-129401074D01*
X138773947Y-129422309D01*
X138775000Y-129443750D01*
X138775000Y-129881250D01*
X138773947Y-129902691D01*
X138770797Y-129923926D01*
X138765581Y-129944750D01*
X138758349Y-129964962D01*
X138749170Y-129984368D01*
X138738134Y-130002781D01*
X138725346Y-130020024D01*
X138710930Y-130035930D01*
X138695024Y-130050346D01*
X138677781Y-130063134D01*
X138659368Y-130074170D01*
X138639962Y-130083349D01*
X138619750Y-130090581D01*
X138598926Y-130095797D01*
X138577691Y-130098947D01*
X138556250Y-130100000D01*
X138043750Y-130100000D01*
X138022309Y-130098947D01*
X138001074Y-130095797D01*
X137980250Y-130090581D01*
X137960038Y-130083349D01*
X137940632Y-130074170D01*
X137922219Y-130063134D01*
X137904976Y-130050346D01*
X137889070Y-130035930D01*
X137874654Y-130020024D01*
X137861866Y-130002781D01*
X137850830Y-129984368D01*
X137841651Y-129964962D01*
X137834419Y-129944750D01*
X137829203Y-129923926D01*
X137826053Y-129902691D01*
X137825000Y-129881250D01*
X137825000Y-129443750D01*
X137826053Y-129422309D01*
X137829203Y-129401074D01*
X137834419Y-129380250D01*
X137841651Y-129360038D01*
X137850830Y-129340632D01*
X137861866Y-129322219D01*
X137874654Y-129304976D01*
X137889070Y-129289070D01*
X137904976Y-129274654D01*
X137922219Y-129261866D01*
X137940632Y-129250830D01*
X137960038Y-129241651D01*
X137980250Y-129234419D01*
X138001074Y-129229203D01*
X138022309Y-129226053D01*
X138043750Y-129225000D01*
X138556250Y-129225000D01*
X138577691Y-129226053D01*
X138577691Y-129226053D01*
G37*
D13*
X138300000Y-129662500D03*
D11*
G36*
X138577691Y-130801053D02*
X138598926Y-130804203D01*
X138619750Y-130809419D01*
X138639962Y-130816651D01*
X138659368Y-130825830D01*
X138677781Y-130836866D01*
X138695024Y-130849654D01*
X138710930Y-130864070D01*
X138725346Y-130879976D01*
X138738134Y-130897219D01*
X138749170Y-130915632D01*
X138758349Y-130935038D01*
X138765581Y-130955250D01*
X138770797Y-130976074D01*
X138773947Y-130997309D01*
X138775000Y-131018750D01*
X138775000Y-131456250D01*
X138773947Y-131477691D01*
X138770797Y-131498926D01*
X138765581Y-131519750D01*
X138758349Y-131539962D01*
X138749170Y-131559368D01*
X138738134Y-131577781D01*
X138725346Y-131595024D01*
X138710930Y-131610930D01*
X138695024Y-131625346D01*
X138677781Y-131638134D01*
X138659368Y-131649170D01*
X138639962Y-131658349D01*
X138619750Y-131665581D01*
X138598926Y-131670797D01*
X138577691Y-131673947D01*
X138556250Y-131675000D01*
X138043750Y-131675000D01*
X138022309Y-131673947D01*
X138001074Y-131670797D01*
X137980250Y-131665581D01*
X137960038Y-131658349D01*
X137940632Y-131649170D01*
X137922219Y-131638134D01*
X137904976Y-131625346D01*
X137889070Y-131610930D01*
X137874654Y-131595024D01*
X137861866Y-131577781D01*
X137850830Y-131559368D01*
X137841651Y-131539962D01*
X137834419Y-131519750D01*
X137829203Y-131498926D01*
X137826053Y-131477691D01*
X137825000Y-131456250D01*
X137825000Y-131018750D01*
X137826053Y-130997309D01*
X137829203Y-130976074D01*
X137834419Y-130955250D01*
X137841651Y-130935038D01*
X137850830Y-130915632D01*
X137861866Y-130897219D01*
X137874654Y-130879976D01*
X137889070Y-130864070D01*
X137904976Y-130849654D01*
X137922219Y-130836866D01*
X137940632Y-130825830D01*
X137960038Y-130816651D01*
X137980250Y-130809419D01*
X138001074Y-130804203D01*
X138022309Y-130801053D01*
X138043750Y-130800000D01*
X138556250Y-130800000D01*
X138577691Y-130801053D01*
X138577691Y-130801053D01*
G37*
D13*
X138300000Y-131237500D03*
G04 #@! TD*
D14*
G04 #@! TO.C,J6*
X141845001Y-122000001D03*
D15*
X140645001Y-122125001D03*
D16*
X140395001Y-129725001D03*
D17*
X140720001Y-131225001D03*
D18*
X152345001Y-130375001D03*
D14*
X142945001Y-122000001D03*
X144045001Y-122000001D03*
X145145001Y-122000001D03*
X146245001Y-122000001D03*
X147345001Y-122000001D03*
X148445001Y-122000001D03*
X149545001Y-122000001D03*
D19*
X151995001Y-122125001D03*
D20*
X151945001Y-132800001D03*
G04 #@! TD*
D11*
G04 #@! TO.C,R1*
G36*
X134776958Y-130905710D02*
X134791276Y-130907834D01*
X134805317Y-130911351D01*
X134818946Y-130916228D01*
X134832031Y-130922417D01*
X134844447Y-130929858D01*
X134856073Y-130938481D01*
X134866798Y-130948202D01*
X134876519Y-130958927D01*
X134885142Y-130970553D01*
X134892583Y-130982969D01*
X134898772Y-130996054D01*
X134903649Y-131009683D01*
X134907166Y-131023724D01*
X134909290Y-131038042D01*
X134910000Y-131052500D01*
X134910000Y-131397500D01*
X134909290Y-131411958D01*
X134907166Y-131426276D01*
X134903649Y-131440317D01*
X134898772Y-131453946D01*
X134892583Y-131467031D01*
X134885142Y-131479447D01*
X134876519Y-131491073D01*
X134866798Y-131501798D01*
X134856073Y-131511519D01*
X134844447Y-131520142D01*
X134832031Y-131527583D01*
X134818946Y-131533772D01*
X134805317Y-131538649D01*
X134791276Y-131542166D01*
X134776958Y-131544290D01*
X134762500Y-131545000D01*
X134467500Y-131545000D01*
X134453042Y-131544290D01*
X134438724Y-131542166D01*
X134424683Y-131538649D01*
X134411054Y-131533772D01*
X134397969Y-131527583D01*
X134385553Y-131520142D01*
X134373927Y-131511519D01*
X134363202Y-131501798D01*
X134353481Y-131491073D01*
X134344858Y-131479447D01*
X134337417Y-131467031D01*
X134331228Y-131453946D01*
X134326351Y-131440317D01*
X134322834Y-131426276D01*
X134320710Y-131411958D01*
X134320000Y-131397500D01*
X134320000Y-131052500D01*
X134320710Y-131038042D01*
X134322834Y-131023724D01*
X134326351Y-131009683D01*
X134331228Y-130996054D01*
X134337417Y-130982969D01*
X134344858Y-130970553D01*
X134353481Y-130958927D01*
X134363202Y-130948202D01*
X134373927Y-130938481D01*
X134385553Y-130929858D01*
X134397969Y-130922417D01*
X134411054Y-130916228D01*
X134424683Y-130911351D01*
X134438724Y-130907834D01*
X134453042Y-130905710D01*
X134467500Y-130905000D01*
X134762500Y-130905000D01*
X134776958Y-130905710D01*
X134776958Y-130905710D01*
G37*
D12*
X134615000Y-131225000D03*
D11*
G36*
X135746958Y-130905710D02*
X135761276Y-130907834D01*
X135775317Y-130911351D01*
X135788946Y-130916228D01*
X135802031Y-130922417D01*
X135814447Y-130929858D01*
X135826073Y-130938481D01*
X135836798Y-130948202D01*
X135846519Y-130958927D01*
X135855142Y-130970553D01*
X135862583Y-130982969D01*
X135868772Y-130996054D01*
X135873649Y-131009683D01*
X135877166Y-131023724D01*
X135879290Y-131038042D01*
X135880000Y-131052500D01*
X135880000Y-131397500D01*
X135879290Y-131411958D01*
X135877166Y-131426276D01*
X135873649Y-131440317D01*
X135868772Y-131453946D01*
X135862583Y-131467031D01*
X135855142Y-131479447D01*
X135846519Y-131491073D01*
X135836798Y-131501798D01*
X135826073Y-131511519D01*
X135814447Y-131520142D01*
X135802031Y-131527583D01*
X135788946Y-131533772D01*
X135775317Y-131538649D01*
X135761276Y-131542166D01*
X135746958Y-131544290D01*
X135732500Y-131545000D01*
X135437500Y-131545000D01*
X135423042Y-131544290D01*
X135408724Y-131542166D01*
X135394683Y-131538649D01*
X135381054Y-131533772D01*
X135367969Y-131527583D01*
X135355553Y-131520142D01*
X135343927Y-131511519D01*
X135333202Y-131501798D01*
X135323481Y-131491073D01*
X135314858Y-131479447D01*
X135307417Y-131467031D01*
X135301228Y-131453946D01*
X135296351Y-131440317D01*
X135292834Y-131426276D01*
X135290710Y-131411958D01*
X135290000Y-131397500D01*
X135290000Y-131052500D01*
X135290710Y-131038042D01*
X135292834Y-131023724D01*
X135296351Y-131009683D01*
X135301228Y-130996054D01*
X135307417Y-130982969D01*
X135314858Y-130970553D01*
X135323481Y-130958927D01*
X135333202Y-130948202D01*
X135343927Y-130938481D01*
X135355553Y-130929858D01*
X135367969Y-130922417D01*
X135381054Y-130916228D01*
X135394683Y-130911351D01*
X135408724Y-130907834D01*
X135423042Y-130905710D01*
X135437500Y-130905000D01*
X135732500Y-130905000D01*
X135746958Y-130905710D01*
X135746958Y-130905710D01*
G37*
D12*
X135585000Y-131225000D03*
G04 #@! TD*
M02*
