M48
;DRILL file {KiCad 5.0.0-rc3-6a2723a~65~ubuntu16.04.1} date Fri Apr 26 01:55:41 2019
;FORMAT={3:3/ absolute / metric / suppress leading zeros}
FMAT,2
METRIC,TZ
T1C0.200
T2C1.000
T3C1.270
%
G90
G05
M71
T1
X116025Y-82625
X121350Y-113435
X124300Y-111200
X124300Y-112325
X124850Y-107225
X125200Y-106100
X125750Y-100825
X126400Y-95875
X126800Y-94925
X127250Y-93625
X128525Y-93550
X130675Y-92800
X131150Y-94200
X132825Y-93175
X133925Y-97275
X133950Y-94200
X133950Y-96175
X134950Y-94275
X135425Y-99825
X135500Y-132530
X136075Y-94700
X136500Y-99875
X137625Y-124375
X138300Y-128450
X138565Y-95250
X138575Y-120050
X138625Y-95900
X138775Y-91475
X138775Y-92100
X139125Y-114975
X139275Y-127375
X139275Y-128450
X139425Y-94050
X139500Y-123475
X139625Y-80675
X139675Y-84475
X139675Y-88300
X141250Y-87675
X141250Y-97825
X141250Y-100350
X141250Y-107950
X141250Y-111775
X141250Y-119375
X141275Y-78750
X141275Y-82575
X141275Y-83850
X141275Y-102850
X141275Y-104175
X141275Y-110525
X141275Y-114325
X141900Y-129450
X142391Y-124513
X142500Y-78725
X142500Y-82525
X142500Y-86400
X142525Y-88925
X142525Y-92725
X142525Y-94000
X142525Y-101625
X142525Y-106700
X142525Y-111775
X142525Y-118125
X142550Y-90175
X142550Y-100350
X142550Y-102900
X142550Y-107950
X142550Y-110525
X142550Y-115600
X142550Y-119400
X142675Y-123300
X142862Y-85034
X143200Y-129475
X143750Y-95250
X143775Y-83900
X143775Y-87650
X143775Y-102875
X143775Y-125725
X143800Y-78775
X143800Y-88950
X143800Y-90200
X143800Y-91450
X143800Y-92725
X143800Y-94025
X143800Y-100350
X143800Y-101625
X143800Y-105450
X143800Y-109250
X143800Y-110500
X143800Y-114325
X143800Y-116850
X143800Y-119400
X143800Y-124475
X143825Y-85125
X143825Y-104150
X143825Y-106675
X143825Y-107950
X143825Y-111800
X143836Y-81239
X143850Y-86350
X143875Y-131225
X143900Y-123300
X144150Y-121850
X144831Y-94012
X144955Y-114205
X144969Y-125634
X145015Y-91450
X145025Y-87650
X145050Y-78725
X145050Y-82600
X145050Y-85100
X145050Y-86400
X145050Y-102925
X145050Y-119400
X145075Y-83800
X145075Y-100350
X145075Y-106700
X145075Y-110525
X145101Y-96474
X145125Y-97925
X146217Y-92642
X146293Y-106800
X146325Y-110525
X146325Y-119375
X146345Y-115465
X146350Y-78775
X146350Y-80105
X146350Y-105450
X146350Y-113050
X147550Y-83775
X147575Y-94025
X147575Y-119425
X147600Y-78750
X147600Y-87625
X147600Y-90250
X147600Y-95275
X147600Y-101650
X147600Y-110525
X147600Y-125650
X147625Y-81300
X147625Y-86400
X147625Y-97875
X147625Y-99075
X147625Y-102875
X147625Y-109250
X147625Y-124500
X147649Y-88949
X147650Y-105425
X148025Y-129425
X148325Y-132525
X148675Y-110525
X148814Y-109164
X148850Y-86350
X148850Y-101550
X148875Y-81325
X148875Y-87650
X148875Y-88925
X148875Y-90150
X148875Y-92725
X148875Y-95275
X148875Y-97925
X148875Y-116850
X148883Y-125789
X148900Y-78750
X148900Y-85125
X148900Y-91425
X148900Y-99075
X148900Y-104150
X148900Y-106700
X148900Y-107975
X148933Y-94058
X149525Y-129425
X150022Y-107872
X150047Y-102772
X150125Y-82600
X150125Y-91425
X150150Y-81300
X150150Y-85125
X150150Y-88925
X150150Y-90200
X150150Y-95225
X150150Y-119400
X150175Y-78775
X150175Y-86400
X150175Y-96550
X150200Y-114350
X151275Y-109375
X151375Y-125725
X151400Y-83875
X151400Y-100325
X151400Y-116825
X151400Y-128325
X151425Y-81300
X151425Y-87675
X151425Y-88900
X151425Y-91450
X151425Y-92750
X151425Y-119425
X151450Y-94009
X151450Y-95250
X151450Y-123200
X151475Y-120650
X152725Y-77475
X153546Y-93346
X153575Y-82800
X153575Y-97175
X153575Y-98300
X153575Y-102250
X153575Y-103550
X153575Y-105450
X153575Y-108000
X153575Y-108600
X153575Y-112425
X153575Y-113675
X153575Y-119125
X153575Y-122600
X153575Y-123850
X153650Y-130375
X153650Y-131150
X158475Y-113800
X160075Y-115350
X161775Y-105475
X162650Y-104925
X163875Y-105550
X167975Y-93000
X168425Y-92225
X171575Y-82750
T2
X111100Y-78940
X111100Y-81480
X111100Y-84020
X111100Y-86560
X111100Y-89100
X111100Y-91640
X111100Y-94180
X111100Y-96720
X111100Y-99260
X111100Y-101800
X111100Y-104340
X111100Y-106880
X111100Y-109420
X111100Y-111960
X111100Y-114500
X111100Y-117040
X111100Y-119580
X111100Y-122120
X111100Y-124660
X111100Y-127200
X113640Y-78940
X113640Y-81480
X113640Y-84020
X113640Y-86560
X113640Y-89100
X113640Y-91640
X113640Y-94180
X113640Y-96720
X113640Y-99260
X113640Y-101800
X113640Y-104340
X113640Y-106880
X113640Y-109420
X113640Y-111960
X113640Y-114500
X113640Y-117040
X113640Y-119580
X113640Y-122120
X113640Y-124660
X113640Y-127200
X170300Y-78940
X170300Y-81480
X170300Y-84020
X170300Y-86560
X170300Y-89100
X170300Y-91640
X170300Y-94180
X170300Y-96720
X170300Y-99260
X170300Y-101800
X170300Y-104340
X170300Y-106880
X170300Y-109420
X170300Y-111960
X170300Y-114500
X170300Y-117040
X170300Y-119580
X170300Y-122120
X170300Y-124660
X170300Y-127200
X172840Y-78940
X172840Y-81480
X172840Y-84020
X172840Y-86560
X172840Y-89100
X172840Y-91640
X172840Y-94180
X172840Y-96720
X172840Y-99260
X172840Y-101800
X172840Y-104340
X172840Y-106880
X172840Y-109420
X172840Y-111960
X172840Y-114500
X172840Y-117040
X172840Y-119580
X172840Y-122120
X172840Y-124660
X172840Y-127200
X179200Y-78940
X179200Y-81480
X179200Y-84020
X179200Y-86560
X179200Y-89100
X179200Y-91640
X179200Y-94180
X179200Y-96720
X179200Y-99260
X179200Y-101800
X179200Y-104340
X179200Y-106880
X179200Y-109420
X179200Y-111960
X179200Y-114500
X179200Y-117040
X179200Y-119580
X179200Y-122120
X179200Y-124660
X179200Y-127200
X181740Y-78940
X181740Y-81480
X181740Y-84020
X181740Y-86560
X181740Y-89100
X181740Y-91640
X181740Y-94180
X181740Y-96720
X181740Y-99260
X181740Y-101800
X181740Y-104340
X181740Y-106880
X181740Y-109420
X181740Y-111960
X181740Y-114500
X181740Y-117040
X181740Y-119580
X181740Y-122120
X181740Y-124660
X181740Y-127200
X120050Y-78940
X120050Y-81480
X120050Y-84020
X120050Y-86560
X120050Y-89100
X120050Y-91640
X120050Y-94180
X120050Y-96720
X120050Y-99260
X120050Y-101800
X120050Y-104340
X120050Y-106880
X120050Y-109420
X120050Y-111960
X120050Y-114500
X120050Y-117040
X120050Y-119580
X120050Y-122120
X120050Y-124660
X120050Y-127200
X122590Y-78940
X122590Y-81480
X122590Y-84020
X122590Y-86560
X122590Y-89100
X122590Y-91640
X122590Y-94180
X122590Y-96720
X122590Y-99260
X122590Y-101800
X122590Y-104340
X122590Y-106880
X122590Y-109420
X122590Y-111960
X122590Y-114500
X122590Y-117040
X122590Y-119580
X122590Y-122120
X122590Y-124660
X122590Y-127200
T3
X146350Y-130090
X149400Y-75710
T0
M30
